<?xml version="1.0" standalone="no"?>
<!DOCTYPE svg PUBLIC "-//W3C//DTD SVG 20010904//EN"
 "http://www.w3.org/TR/2001/REC-SVG-20010904/DTD/svg10.dtd">
<svg version="1.0" xmlns="http://www.w3.org/2000/svg"
 width="300.000000pt" height="300.000000pt" viewBox="0 0 300.000000 300.000000"
 preserveAspectRatio="xMidYMid meet">
<metadata>
Created by potrace 1.10, written by Peter Selinger 2001-2011
</metadata>
<g transform="translate(0.000000,300.000000) scale(0.100000,-0.100000)"
fill="#000000" stroke="none">
<path d="M1316 2564 c-396 -78 -715 -361 -835 -739 -44 -139 -54 -213 -49
-375 8 -216 54 -365 167 -537 190 -288 476 -461 816 -495 339 -35 705 124 927
401 197 246 278 566 219 868 -89 454 -426 793 -874 878 -96 18 -277 18 -371
-1z m339 -28 c17 -3 38 -7 47 -9 10 -2 21 -6 24 -10 4 -4 22 -7 41 -7 18 0 33
-5 33 -12 0 -6 3 -9 6 -5 8 8 110 -32 159 -62 22 -13 42 -23 45 -22 3 1 19 -9
35 -22 17 -13 45 -32 63 -41 17 -9 32 -21 32 -26 0 -6 6 -10 13 -10 17 0 59
-44 50 -53 -3 -4 1 -7 9 -7 9 0 34 -21 55 -46 21 -25 48 -57 60 -72 13 -15 23
-30 23 -33 0 -3 11 -19 25 -35 14 -16 23 -35 20 -41 -2 -7 2 -13 10 -13 8 0
15 -9 15 -20 0 -11 4 -20 9 -20 5 0 11 -10 14 -22 3 -13 14 -45 25 -73 33 -81
52 -149 67 -251 50 -335 -92 -700 -359 -923 -121 -101 -252 -172 -381 -207
-33 -9 -78 -21 -100 -27 -22 -6 -110 -11 -195 -11 -134 -1 -167 3 -240 23
-196 55 -353 144 -480 271 -92 92 -99 102 -167 212 -74 122 -110 214 -133 348
-14 77 -20 282 -10 325 4 17 13 57 20 90 8 33 17 65 22 71 4 6 5 13 2 17 -3 3
1 20 10 39 8 18 22 51 31 73 9 22 24 51 33 65 9 14 17 29 17 33 0 4 7 12 15
17 8 5 11 10 6 10 -5 0 1 9 13 19 14 12 20 25 15 32 -4 8 -3 9 4 5 7 -4 12 -3
12 2 0 5 14 27 31 48 16 22 42 54 56 71 14 18 29 31 33 28 11 -7 31 20 22 29
-4 4 -2 6 3 4 6 -1 17 2 25 9 8 7 31 25 50 41 52 42 153 102 173 102 9 0 17 5
17 12 0 6 3 8 7 5 3 -4 11 -3 17 2 19 15 124 50 130 44 3 -4 6 -1 6 6 0 8 7
10 19 6 11 -3 22 -1 26 5 3 5 21 10 38 10 18 0 38 4 45 9 14 8 238 7 287 -3z"/>
<path d="M1419 2501 c-4 -12 -89 -33 -132 -31 -15 0 -35 -7 -44 -16 -9 -9 -26
-14 -39 -11 -14 2 -25 -2 -28 -9 -3 -8 -12 -14 -21 -14 -8 0 -23 -4 -33 -9 -9
-6 -36 -18 -59 -27 -23 -10 -39 -22 -36 -27 3 -5 0 -8 -8 -5 -8 3 -20 -1 -27
-9 -8 -7 -18 -10 -24 -7 -7 4 -8 2 -4 -4 6 -11 -6 -16 -26 -13 -5 0 -8 -6 -8
-14 0 -9 -6 -12 -17 -8 -11 4 -14 3 -9 -5 4 -7 2 -12 -5 -12 -7 0 -45 -34 -85
-75 -39 -41 -70 -75 -68 -75 2 0 -19 -30 -47 -67 -43 -58 -79 -123 -120 -218
-74 -174 -79 -545 -8 -621 13 -14 23 -35 21 -47 -4 -32 54 -90 82 -83 11 4 41
9 66 12 44 5 43 4 -19 -17 -44 -16 -58 -25 -46 -29 15 -5 16 -7 1 -19 -23 -19
-20 -44 10 -72 14 -13 34 -40 44 -60 50 -96 251 -250 420 -322 204 -86 492
-91 685 -12 192 79 388 226 431 325 10 21 27 44 40 51 32 17 46 61 28 87 -11
16 -11 21 -1 25 6 2 -12 12 -40 21 -29 10 -55 21 -58 25 -2 5 -29 7 -60 5 -31
-2 -54 0 -51 4 3 4 -11 6 -30 4 -19 -2 -33 -6 -31 -8 2 -3 35 -13 73 -24 70
-20 184 -69 184 -79 0 -3 -7 -14 -14 -23 -12 -17 -17 -16 -68 12 -63 34 -195
71 -360 100 -64 11 -129 25 -144 30 -74 28 -124 96 -124 167 0 36 4 40 62 76
53 33 65 37 85 28 34 -16 108 -13 151 5 42 17 85 55 112 99 23 38 61 155 54
166 -14 23 -158 7 -238 -26 -17 -7 -17 -6 -6 15 27 51 51 205 35 222 -10 10
-121 -13 -171 -36 -30 -14 -63 -39 -80 -62 -25 -33 -29 -47 -30 -108 -1 -39
-6 -87 -13 -106 -14 -43 -15 -401 -1 -449 27 -94 117 -161 217 -161 40 0 58
-5 73 -20 26 -26 50 -26 43 0 -6 23 -3 24 32 8 15 -7 37 -32 51 -59 36 -71
104 -117 104 -69 0 10 -9 24 -19 30 -11 5 -32 34 -48 63 -33 61 -92 97 -159
97 -34 0 -43 4 -53 26 l-11 26 42 -7 c187 -29 380 -86 407 -119 9 -11 3 -24
-28 -59 -144 -168 -342 -282 -556 -322 -117 -22 -288 -16 -395 15 -189 54
-366 166 -486 307 -54 63 -57 58 58 103 72 28 328 86 347 78 5 -2 5 -13 0 -25
-7 -19 -16 -23 -51 -23 -62 0 -120 -32 -148 -83 -12 -23 -36 -56 -53 -74 -28
-30 -30 -53 -3 -53 17 0 86 75 86 93 0 18 39 53 68 62 24 7 27 3 12 -25 -9
-18 -8 -18 19 -9 16 6 32 17 35 25 4 9 21 14 52 14 102 0 188 53 219 135 26
66 28 456 3 501 -13 24 -15 39 -9 62 32 109 -78 211 -240 223 l-44 4 3 -59 c2
-32 12 -86 22 -119 11 -34 18 -62 16 -64 -1 -2 -18 5 -37 14 -47 23 -209 32
-209 11 0 -25 39 -129 64 -173 48 -82 162 -126 247 -96 29 10 37 8 93 -28 41
-25 62 -46 64 -61 6 -36 -26 -106 -63 -138 -42 -37 -64 -44 -256 -82 -160 -31
-278 -66 -333 -98 -31 -19 -32 -19 -49 4 -17 22 -16 22 56 52 81 33 174 62
227 69 76 11 79 18 24 46 -103 52 -173 70 -299 76 l-120 6 -13 55 c-23 92 -19
309 6 414 44 176 131 332 257 459 198 200 496 308 762 277 395 -47 720 -327
825 -711 19 -70 23 -109 23 -234 0 -89 -5 -173 -13 -207 l-13 -58 -98 0 c-113
0 -186 -17 -291 -66 -59 -28 -71 -37 -59 -44 31 -18 74 -12 134 16 53 24 74
28 177 32 l117 4 -11 -28 c-10 -29 -11 -29 -79 -26 -38 2 -69 0 -69 -5 0 -4
23 -14 51 -20 74 -18 118 8 124 74 1 19 9 40 18 44 47 27 71 272 43 434 -22
126 -88 307 -121 335 -8 7 -15 19 -15 26 0 8 -4 14 -10 14 -5 0 -10 7 -10 15
0 8 -5 15 -11 15 -6 0 -9 9 -6 19 3 12 0 18 -7 15 -12 -4 -51 55 -47 71 1 5 0
7 -4 3 -4 -4 -21 6 -39 22 -17 17 -34 30 -38 30 -5 0 -8 7 -8 15 0 8 -5 15
-10 15 -15 0 -115 81 -113 91 2 5 -4 6 -12 2 -9 -3 -25 3 -35 12 -11 10 -20
14 -20 10 0 -5 -11 2 -25 15 -14 13 -25 20 -25 16 0 -5 -6 -4 -13 2 -26 22
-139 61 -193 66 -11 1 -24 5 -30 8 -12 8 -114 19 -189 21 -33 1 -63 6 -66 11
-4 4 -8 3 -10 -3z m397 -718 c-14 -120 -67 -191 -137 -185 -45 5 -51 19 -11
27 65 14 83 21 80 30 -2 6 -16 9 -33 8 l-30 -3 43 38 c23 20 42 40 42 45 0 15
-34 6 -57 -15 l-23 -21 0 27 c0 24 -2 27 -15 16 -8 -7 -15 -22 -15 -34 -1 -27
-26 -62 -32 -44 -8 23 11 70 39 100 21 22 109 61 152 67 2 1 1 -25 -3 -56z
m-518 20 c45 -24 82 -76 82 -116 0 -25 -2 -28 -15 -17 -8 7 -15 23 -15 37 0
32 -52 78 -101 91 -52 13 -50 -1 2 -18 46 -16 69 -34 69 -56 0 -12 -6 -11 -30
6 -19 13 -37 19 -48 15 -18 -7 -18 -7 56 -65 l27 -21 -37 6 c-29 4 -38 3 -38
-8 0 -16 29 -27 71 -27 14 0 33 -8 42 -18 15 -16 14 -17 -25 -14 -28 3 -39 1
-34 -7 4 -6 22 -11 41 -11 19 0 37 -5 40 -11 11 -17 0 -20 -28 -10 -18 7 -28
7 -32 0 -8 -12 -80 64 -105 111 -10 20 -21 54 -25 75 -3 22 -8 51 -11 64 -5
23 -3 24 36 18 22 -3 57 -14 78 -24z m512 -147 c0 -8 -12 -28 -26 -45 -14 -17
-23 -31 -20 -31 3 0 -3 -15 -14 -32 -11 -18 -20 -45 -20 -60 0 -21 -10 -32
-57 -60 -32 -18 -60 -34 -63 -36 -3 -1 -3 22 -2 52 4 54 4 54 47 71 54 20 95
51 95 72 0 12 47 79 58 82 1 1 2 -5 2 -13z m-554 -72 c-7 -17 69 -69 115 -79
28 -6 29 -9 29 -62 l0 -55 -27 17 c-14 10 -41 26 -60 37 -18 11 -33 28 -33 37
0 9 -9 34 -20 56 -11 21 -18 40 -16 42 2 3 -7 16 -20 30 -13 14 -24 33 -24 42
0 11 10 6 31 -17 18 -19 28 -39 25 -48z m-119 20 c44 -21 93 -72 93 -97 0 -16
-32 9 -46 34 -16 32 -39 40 -31 11 4 -18 3 -18 -32 -1 -35 17 -67 10 -45 -10
21 -20 168 -93 155 -78 -8 10 -11 20 -8 23 3 3 10 -4 17 -15 9 -19 7 -22 -16
-32 -50 -18 -123 9 -169 63 -29 35 -64 103 -65 127 0 20 83 6 147 -25z m878
14 c-15 -49 -61 -122 -92 -145 -39 -30 -103 -46 -134 -35 -20 8 -14 13 53 50
82 46 106 66 88 77 -6 4 -27 -3 -46 -14 l-35 -21 6 21 c10 29 -16 20 -32 -11
-6 -13 -19 -27 -27 -32 -44 -25 15 68 61 94 30 18 94 35 141 37 20 1 22 -3 17
-21z m-315 -53 c-9 -11 -15 -12 -20 -5 -5 8 -14 8 -33 -1 -25 -11 -48 -7 -35
6 6 7 91 23 97 18 2 -1 -2 -10 -9 -18z m-812 -415 c29 -12 51 -24 49 -27 -9
-9 -147 -12 -152 -3 -3 6 -40 10 -80 10 -63 0 -76 3 -85 19 -5 11 -10 23 -10
27 0 3 51 4 113 2 88 -4 123 -10 165 -28z m499 -31 c-8 -19 -28 -46 -43 -61
-35 -33 -114 -64 -114 -45 0 24 32 58 78 81 26 13 56 33 66 45 26 28 30 21 13
-20z m320 -33 c17 -8 41 -28 53 -43 l22 -28 -21 -3 c-34 -5 -101 39 -127 84
-34 58 -30 74 9 37 17 -17 46 -38 64 -47z"/>
<path d="M1734 1790 c-43 -17 -34 -29 11 -14 25 9 45 18 45 20 0 7 -34 3 -56
-6z"/>
<path d="M1040 1601 c8 -5 33 -11 55 -14 l40 -6 -30 14 c-33 15 -92 21 -65 6z"/>
<path d="M681 1156 c2 -2 38 -6 79 -9 46 -3 63 -2 45 3 -30 8 -132 13 -124 6z"/>
<path d="M1357 2384 c-15 -15 -7 -45 11 -42 9 2 17 12 17 22 0 20 -16 31 -28
20z"/>
<path d="M1470 2344 c-48 -77 -71 -130 -75 -176 -2 -24 -11 -61 -19 -83 -20
-52 -20 -100 0 -158 15 -43 71 -107 94 -107 6 0 10 -93 10 -240 0 -211 2 -241
16 -247 9 -3 19 -1 23 5 3 5 6 116 6 245 l0 234 36 21 c71 41 106 180 66 259
-10 18 -17 50 -17 71 0 40 -32 112 -83 187 l-26 38 -31 -49z m89 -179 c0 -25
-7 -49 -19 -65 l-20 -25 1 76 c1 43 -4 85 -9 95 -10 18 -11 18 -19 -1 -4 -11
-8 -50 -8 -87 0 -38 -3 -68 -7 -68 -14 0 -38 45 -38 73 0 15 14 55 31 89 l31
62 29 -54 c17 -33 28 -71 28 -95z m-74 -191 c-2 -23 1 -48 6 -55 6 -10 9 -7
10 11 1 17 4 12 9 -15 6 -34 7 -28 9 35 1 73 2 76 35 102 l34 27 7 -36 c11
-60 -3 -110 -44 -153 -20 -22 -42 -40 -49 -40 -15 0 -59 45 -77 80 -15 28 -21
131 -9 143 3 3 21 -9 39 -26 27 -27 32 -38 30 -73z"/>
<path d="M1556 2021 c-17 -19 -17 -21 -3 -21 23 0 21 -9 -5 -38 -13 -14 -17
-22 -10 -18 7 4 12 2 12 -6 0 -9 5 -8 16 3 10 11 14 30 12 59 l-3 42 -19 -21z"/>
<path d="M1430 1998 c0 -20 5 -49 11 -65 l11 -28 9 24 c7 18 5 28 -6 41 -13
14 -13 19 -3 23 10 3 9 9 -4 23 -17 18 -18 17 -18 -18z"/>
<path d="M1614 2375 c-7 -18 3 -35 22 -35 20 0 30 30 13 41 -20 12 -29 11 -35
-6z"/>
<path d="M1180 2322 c0 -10 10 -38 23 -62 22 -45 58 -73 109 -85 25 -6 27 -4
34 30 14 74 -45 135 -130 135 -28 0 -36 -4 -36 -18z m83 -16 c38 -16 62 -41
72 -76 6 -19 0 -15 -23 16 -17 23 -44 46 -61 52 -39 14 -39 6 1 -35 20 -21 26
-33 17 -33 -21 0 -33 11 -47 43 -11 25 -9 47 4 47 3 0 19 -6 37 -14z"/>
<path d="M1713 2320 c-43 -26 -67 -73 -58 -116 3 -19 11 -34 18 -34 22 1 92
37 109 57 14 15 48 93 48 109 0 13 -90 1 -117 -16z m38 -23 c-28 -14 -51 -35
-63 -57 -13 -25 -18 -29 -18 -15 0 30 28 65 64 81 51 22 65 15 17 -9z m34 -26
c-6 -20 -65 -60 -65 -44 0 10 63 74 68 69 2 -3 1 -14 -3 -25z"/>
<path d="M1041 2246 c-35 -139 25 -266 141 -301 28 -8 58 -15 65 -15 7 0 22
-9 33 -20 18 -18 21 -18 27 -5 3 9 3 45 1 80 -7 84 -33 124 -124 191 -41 30
-84 68 -96 84 -12 17 -25 30 -29 30 -4 0 -12 -20 -18 -44z m125 -119 c64 -52
94 -94 94 -133 0 -28 -1 -28 -30 18 -16 26 -59 70 -94 99 -36 29 -63 56 -60
61 9 14 32 2 90 -45z m-52 -30 c27 -25 25 -37 -5 -37 -17 0 -29 19 -29 46 0
19 5 18 34 -9z m57 -63 c11 -14 9 -15 -21 -12 -18 2 -35 9 -38 16 -6 18 43 15
59 -4z m57 -43 c14 -21 14 -22 -11 -17 -41 7 -50 15 -36 32 15 18 28 14 47
-15z"/>
<path d="M1917 2260 c-10 -16 -39 -44 -65 -61 -67 -45 -111 -88 -133 -131 -20
-40 -35 -137 -25 -164 6 -16 8 -15 29 3 12 12 48 26 81 33 107 22 167 108 165
236 -2 106 -21 137 -52 84z m13 -89 c0 -5 -29 -32 -64 -60 -67 -53 -96 -89
-96 -118 0 -15 1 -15 13 1 10 13 20 16 36 11 33 -10 14 -22 -44 -29 -27 -3
-41 -3 -31 0 13 4 15 8 7 14 -10 5 -9 15 2 41 27 62 177 181 177 140z m0 -68
c-2 -31 -51 -55 -65 -33 -3 6 -1 10 5 10 6 0 18 7 26 15 16 16 34 20 34 8z
m-40 -63 c0 -13 -41 -29 -58 -23 -9 4 -10 9 -1 19 13 16 59 19 59 4z"/>
<path d="M925 2180 c-4 -7 -3 -16 3 -22 14 -14 45 -2 40 15 -6 16 -34 21 -43
7z"/>
<path d="M2040 2170 c0 -13 7 -20 20 -20 13 0 20 7 20 20 0 13 -7 20 -20 20
-13 0 -20 -7 -20 -20z"/>
<path d="M856 2104 c-3 -9 -9 -46 -12 -82 -7 -76 5 -133 39 -183 24 -35 89
-79 120 -79 21 0 18 18 -11 80 -15 31 -21 35 -49 32 -25 -3 -33 0 -33 12 0 13
6 15 28 10 25 -7 26 -6 13 10 -8 10 -27 24 -43 32 -15 8 -28 19 -28 24 0 16
26 11 53 -10 32 -25 45 -25 49 0 2 12 7 19 13 18 11 -3 7 -38 -6 -54 -6 -7 -4
-16 5 -23 8 -7 23 -32 32 -57 9 -24 20 -41 25 -39 15 10 22 96 10 136 -15 51
-49 89 -127 144 -36 25 -67 45 -68 45 -2 0 -7 -7 -10 -16z m92 -115 l-3 -24
-13 23 c-7 12 -10 27 -6 33 10 17 26 -6 22 -32z"/>
<path d="M2059 2065 c-57 -40 -82 -65 -98 -98 -21 -42 -27 -109 -15 -154 7
-25 24 -31 24 -9 0 7 11 34 25 60 19 36 23 52 15 66 -13 24 -13 50 0 50 6 0
10 -6 10 -12 1 -34 17 -40 51 -19 37 23 49 26 49 12 0 -5 -16 -18 -35 -30 -39
-23 -45 -38 -15 -37 10 1 18 -3 17 -9 -1 -5 -15 -10 -31 -11 -25 0 -33 -7 -47
-40 -35 -78 -18 -93 57 -49 78 46 112 139 93 257 -6 34 -13 66 -17 70 -4 4
-41 -18 -83 -47z m21 -59 c0 -14 -4 -28 -10 -31 -6 -4 -10 7 -10 24 0 17 5 31
10 31 6 0 10 -11 10 -24z"/>
<path d="M745 1970 c-8 -14 3 -30 21 -30 8 0 14 9 14 20 0 21 -24 28 -35 10z"/>
<path d="M2225 1970 c-4 -7 -3 -16 3 -22 14 -14 45 -2 40 15 -6 16 -34 21 -43
7z"/>
<path d="M698 1873 c-7 -16 -12 -64 -12 -108 -1 -70 2 -85 26 -121 16 -26 43
-50 71 -63 46 -22 87 -28 87 -11 0 6 -4 10 -9 10 -16 0 -91 111 -109 162 -9
26 -20 48 -24 48 -5 0 -8 11 -8 25 0 15 6 25 14 25 18 0 30 -17 15 -22 -19 -6
99 -198 122 -198 16 0 9 83 -11 127 -17 38 -124 153 -143 153 -4 0 -13 -12
-19 -27z"/>
<path d="M2215 1838 c-53 -52 -66 -73 -80 -121 -10 -33 -14 -70 -10 -85 l6
-26 25 30 c13 16 41 58 61 94 20 36 41 68 47 72 6 4 7 10 3 14 -3 4 -13 1 -22
-6 -10 -8 -15 -9 -15 -2 0 6 10 16 21 23 17 9 23 8 30 -2 12 -19 11 -35 -3
-51 -7 -7 -25 -39 -41 -71 -15 -31 -46 -78 -68 -102 -41 -44 -41 -45 -16 -45
58 0 123 44 154 105 9 16 16 54 17 85 1 59 -21 150 -36 150 -5 0 -38 -28 -73
-62z"/>
<path d="M620 1591 c0 -15 6 -21 21 -21 25 0 22 33 -4 38 -12 2 -17 -3 -17
-17z"/>
<path d="M2345 1600 c-4 -7 -3 -16 3 -22 14 -14 45 -2 40 15 -6 16 -34 21 -43
7z"/>
<path d="M626 1491 c-18 -29 29 -49 167 -69 37 -6 90 -22 117 -36 42 -22 50
-23 61 -10 17 21 -28 66 -95 95 -60 26 -238 40 -250 20z m206 -39 c5 -5 -15
-5 -49 0 -31 5 -60 12 -63 15 -8 9 103 -6 112 -15z"/>
<path d="M2187 1489 c-43 -10 -114 -44 -139 -67 -24 -21 -23 -52 1 -52 11 0
35 9 53 20 18 10 67 25 108 31 123 20 165 33 165 55 0 17 -9 19 -75 21 -41 1
-92 -3 -113 -8z m121 -24 c-8 -8 -120 -13 -112 -5 11 10 60 17 92 11 13 -2 22
-5 20 -6z"/>
<path d="M624 1355 c-11 -27 7 -35 81 -35 46 0 90 -6 115 -16 45 -18 68 -9 56
21 -10 28 -70 45 -161 45 -66 0 -87 -3 -91 -15z"/>
<path d="M2170 1357 c-24 -8 -36 -19 -38 -35 -4 -28 19 -38 50 -21 13 7 64 16
113 19 82 4 90 7 90 25 0 18 -7 20 -90 22 -50 1 -105 -3 -125 -10z"/>
<path d="M1055 1337 c-58 -20 -106 -47 -100 -56 2 -5 36 -30 73 -56 108 -73
190 -74 262 -5 23 22 46 40 52 40 5 0 8 6 6 13 -3 7 -32 14 -74 18 -38 4 -80
10 -93 14 -18 6 -22 5 -16 -4 6 -10 2 -11 -16 -5 -35 12 -72 11 -76 -2 -2 -7
9 -15 24 -19 27 -6 27 -7 9 -21 -27 -19 -76 -18 -76 1 0 8 -4 15 -10 15 -22 0
-8 18 28 33 55 25 109 28 154 10 46 -18 60 -12 25 12 -34 22 -123 28 -172 12z
m98 -108 c-19 -19 -36 -29 -43 -24 -9 5 -4 15 16 31 44 35 64 30 27 -7z m95
19 c-6 -16 -68 -63 -68 -51 0 14 47 63 60 63 7 0 10 -5 8 -12z"/>
<path d="M1806 1336 c-40 -15 -69 -36 -49 -36 6 0 26 6 45 14 39 17 105 12
156 -10 36 -17 37 -21 18 -46 -16 -22 -59 -23 -76 -3 -10 12 -7 15 14 21 14 3
26 10 26 14 0 15 -37 21 -64 10 -35 -13 -36 -13 -30 4 4 11 0 13 -15 9 -12 -3
-24 -9 -27 -14 -3 -5 -34 -9 -69 -9 -35 0 -67 -5 -70 -10 -8 -13 69 -88 102
-101 42 -16 112 -10 156 12 50 26 126 81 127 92 0 14 -104 56 -155 62 -32 3
-64 0 -89 -9z m19 -66 c-3 -5 1 -10 10 -10 22 0 78 -47 65 -55 -11 -7 -41 8
-59 29 -8 9 -17 13 -22 10 -10 -6 -12 19 -2 29 10 10 15 8 8 -3z m-16 -49 l26
-34 -32 17 c-38 19 -66 60 -38 54 10 -1 29 -18 44 -37z"/>
<path d="M1482 1238 c3 -45 6 -53 23 -53 17 0 19 7 19 50 0 44 -2 50 -22 53
-22 3 -23 1 -20 -50z"/>
<path d="M1481 1138 c-5 -13 -12 -37 -15 -54 -8 -38 -67 -109 -106 -129 -16
-8 -68 -24 -116 -35 -119 -28 -165 -50 -219 -105 -48 -50 -53 -62 -30 -71 10
-4 33 10 63 38 44 42 150 94 174 86 5 -2 -5 -21 -22 -42 -34 -44 -43 -70 -38
-112 5 -46 31 -36 40 14 4 26 19 57 38 78 16 19 30 41 30 49 0 8 15 22 33 30
l32 16 -24 -20 c-28 -26 -22 -58 8 -42 11 6 30 25 43 41 12 17 37 45 55 62 18
17 38 47 44 67 7 20 18 45 25 55 13 19 14 18 23 -7 8 -20 6 -34 -9 -64 -14
-27 -19 -32 -20 -18 -1 12 -10 0 -25 -32 -13 -29 -45 -75 -70 -102 -43 -46
-47 -55 -52 -112 -6 -56 -4 -61 13 -57 14 2 21 15 26 51 5 39 16 58 52 97 25
27 46 58 46 69 0 25 10 51 20 51 4 0 13 -14 19 -31 13 -37 -2 -67 -24 -49 -9
8 -14 0 -17 -34 -3 -26 -20 -67 -42 -103 -41 -67 -51 -115 -24 -121 11 -2 20
8 28 33 12 37 51 104 60 105 9 0 58 -84 65 -112 5 -19 14 -28 27 -28 18 0 20
5 15 37 -4 20 -21 59 -40 87 -30 45 -56 137 -39 135 4 0 26 -23 50 -50 30 -36
42 -59 42 -82 0 -40 13 -62 33 -54 12 4 15 16 11 44 -10 74 -15 84 -68 142
-50 55 -82 117 -74 143 2 6 14 -5 27 -25 13 -21 31 -42 42 -47 10 -6 19 -17
19 -24 0 -15 64 -76 80 -76 19 0 22 24 5 37 -17 11 -17 13 -2 13 9 0 24 -15
33 -32 9 -18 27 -46 40 -61 13 -16 24 -39 24 -52 0 -34 10 -55 26 -55 10 0 14
14 14 49 0 39 -6 56 -30 86 -51 64 -39 67 70 19 30 -13 69 -41 86 -61 21 -24
37 -34 48 -30 24 9 20 23 -21 68 -49 54 -111 84 -224 109 -54 11 -109 31 -130
45 -42 28 -82 89 -99 153 -12 47 -35 56 -49 20z"/>
<path d="M2185 1144 l-40 -13 40 5 c22 4 63 10 90 14 l50 8 -50 0 c-27 0 -68
-6 -90 -14z"/>
<path d="M881 920 c-40 -48 -46 -70 -17 -70 20 0 89 88 82 105 -9 24 -20 18
-65 -35z"/>
<path d="M2055 959 c-9 -13 66 -103 89 -107 27 -6 18 27 -20 74 -36 44 -57 54
-69 33z"/>
<path d="M1087 762 c-31 -33 -35 -52 -9 -52 21 0 66 56 57 70 -10 16 -19 12
-48 -18z"/>
<path d="M1870 775 c0 -26 31 -65 51 -65 25 0 24 14 -3 50 -23 32 -48 40 -48
15z"/>
<path d="M1267 773 c-3 -4 -8 -33 -12 -64 -7 -57 4 -84 26 -62 15 15 16 125 2
130 -6 2 -13 0 -16 -4z"/>
<path d="M1707 773 c-2 -5 -1 -35 2 -68 4 -44 10 -60 21 -60 19 0 27 100 9
121 -13 15 -26 18 -32 7z"/>
</g>
</svg>
