<?xml version="1.0" standalone="no"?>
<!DOCTYPE svg PUBLIC "-//W3C//DTD SVG 20010904//EN"
 "http://www.w3.org/TR/2001/REC-SVG-20010904/DTD/svg10.dtd">
<svg version="1.0" xmlns="http://www.w3.org/2000/svg"
 width="300.000000pt" height="300.000000pt" viewBox="0 0 300.000000 300.000000"
 preserveAspectRatio="xMidYMid meet">
<metadata>
Created by potrace 1.10, written by Peter Selinger 2001-2011
</metadata>
<g transform="translate(0.000000,300.000000) scale(0.100000,-0.100000)"
fill="#4caf50" stroke="none">
<path d="M1334 2569 c-28 -5 -89 -20 -135 -35 -333 -105 -596 -356 -707 -674
-52 -150 -65 -236 -59 -410 4 -129 9 -169 31 -243 51 -170 135 -317 256 -449
220 -240 574 -376 887 -339 301 35 552 172 735 401 72 89 155 240 186 340 90
281 59 596 -84 860 -152 278 -427 477 -752 545 -79 16 -272 19 -358 4z m152
-26 c2 -23 4 -24 14 -18 8 5 7 12 -2 22 -11 14 -5 15 56 9 38 -3 75 -11 82
-16 7 -7 14 -7 18 -1 7 11 62 -2 59 -16 -1 -5 8 -10 20 -10 17 -2 19 0 7 7
-13 8 -13 10 2 10 9 0 19 -4 23 -10 3 -5 12 -7 20 -3 10 3 15 -1 15 -13 0 -11
4 -15 8 -9 10 15 32 17 32 3 0 -6 3 -8 7 -5 3 4 12 -1 20 -11 9 -10 11 -11 7
-2 -7 13 -5 13 9 1 9 -7 17 -10 17 -6 0 4 6 2 13 -4 8 -6 17 -8 20 -4 4 3 7 1
7 -5 0 -7 7 -12 16 -12 9 0 12 -5 8 -12 -5 -8 -2 -9 9 -5 9 3 19 1 23 -5 5 -7
2 -8 -6 -3 -8 5 -11 4 -6 -3 4 -6 12 -9 19 -6 7 2 22 -4 34 -15 11 -11 24 -17
27 -13 4 3 10 2 14 -4 4 -5 29 -24 56 -42 27 -18 46 -32 43 -32 -4 0 1 -8 11
-18 9 -11 22 -17 27 -15 6 3 1 -3 -10 -12 -20 -16 -19 -16 7 -11 28 5 44 -15
31 -37 -4 -7 1 -6 10 2 15 12 17 11 17 -3 0 -9 5 -16 11 -16 14 0 48 -41 49
-58 0 -7 5 -10 11 -6 7 4 10 1 7 -6 -2 -7 7 -24 20 -37 12 -13 20 -28 17 -33
-3 -6 -3 -10 2 -10 14 0 65 -89 57 -101 -4 -7 -3 -9 3 -6 6 4 18 -19 28 -54
10 -33 22 -62 26 -65 4 -2 11 -26 14 -52 4 -26 11 -58 16 -72 19 -50 35 -285
21 -294 -5 -3 -10 -28 -11 -57 -4 -123 -70 -298 -169 -449 -46 -71 -200 -225
-278 -278 -112 -76 -271 -141 -412 -168 -80 -15 -273 -18 -337 -5 -163 34
-341 107 -450 185 -64 46 -215 196 -215 213 0 7 -4 13 -9 13 -23 0 -123 179
-160 288 -44 129 -53 175 -56 312 -3 132 2 166 40 330 25 104 143 329 165 315
6 -4 7 1 3 11 -4 12 -3 15 5 10 8 -5 12 0 12 12 0 23 23 45 35 34 5 -4 5 -2 2
4 -4 6 5 24 18 40 22 25 27 27 36 14 9 -13 10 -13 8 0 -3 32 2 41 36 61 19 12
32 26 28 32 -3 6 -1 7 6 3 6 -4 14 -1 17 8 3 8 12 12 19 10 7 -3 16 3 20 15 3
11 9 20 13 20 20 -3 32 2 27 11 -4 6 1 7 11 3 11 -4 15 -3 11 4 -5 7 2 10 18
9 13 -2 22 0 20 4 -3 4 2 13 10 20 8 7 15 9 15 5 0 -4 7 -2 15 5 8 6 20 8 26
4 7 -4 9 -3 6 3 -7 11 28 27 52 23 7 -1 11 3 8 7 -3 5 3 15 15 22 11 7 17 8
13 2 -9 -15 1 -14 28 3 12 7 37 16 56 20 31 5 32 5 20 -12 -8 -10 -4 -8 11 5
18 16 33 20 54 16 19 -4 27 -2 22 5 -4 7 9 12 36 15 66 6 93 3 94 -10z"/>
<path d="M1510 2509 c0 -5 5 -7 10 -4 6 3 10 8 10 11 0 2 -4 4 -10 4 -5 0 -10
-5 -10 -11z"/>
<path d="M1416 2492 c-4 -10 -16 -18 -29 -19 -33 -2 -79 -10 -101 -19 -13 -5
-17 -4 -13 3 4 6 -3 13 -15 16 -16 4 -18 3 -9 -6 14 -14 14 -23 -1 -25 -25 -2
-48 -8 -54 -15 -4 -4 -16 -7 -26 -7 -10 0 -18 -4 -18 -10 0 -5 -6 -7 -14 -4
-8 3 -17 1 -21 -5 -13 -21 -26 -11 -15 12 10 20 10 20 -3 5 -8 -10 -18 -14
-23 -10 -4 4 -3 0 4 -10 14 -18 6 -27 -21 -23 -9 2 -14 -1 -11 -7 3 -5 -3 -12
-15 -15 -12 -3 -21 -10 -21 -15 0 -6 -8 -7 -17 -4 -10 4 -14 4 -10 0 4 -4 -3
-12 -16 -19 -15 -8 -25 -8 -30 -1 -6 7 -7 4 -4 -6 7 -20 -17 -42 -38 -35 -8 4
-17 2 -20 -4 -4 -5 -3 -9 2 -8 25 4 25 -3 -1 -16 -15 -8 -33 -12 -40 -8 -6 4
-4 -1 3 -11 13 -16 13 -17 -5 -14 -10 1 -18 -2 -17 -8 1 -6 -16 -31 -38 -55
-21 -24 -39 -47 -39 -52 0 -4 -5 -5 -12 -1 -6 4 -8 3 -4 -4 3 -6 -2 -15 -11
-21 -10 -6 -14 -11 -9 -11 5 0 0 -8 -10 -17 -10 -10 -20 -24 -22 -31 -1 -7
-13 -31 -27 -52 -14 -22 -25 -46 -25 -54 0 -8 -7 -22 -16 -30 -8 -9 -13 -20
-10 -25 3 -5 -1 -12 -10 -15 -9 -3 -14 -12 -11 -20 3 -8 3 -17 -1 -20 -3 -4
-7 -17 -9 -29 -2 -12 -10 -56 -19 -97 -13 -65 -19 -238 -10 -305 13 -100 39
-155 72 -155 13 0 13 -2 0 -16 -20 -20 -20 -20 5 -55 11 -17 30 -29 42 -29 20
-1 20 -2 5 -11 -24 -13 -23 -39 1 -39 10 0 38 7 61 15 24 8 45 13 47 11 2 -2
-11 -9 -29 -15 -17 -6 -42 -21 -55 -33 -22 -20 -22 -22 -6 -49 10 -16 25 -32
35 -35 10 -3 18 -13 18 -23 0 -10 7 -24 15 -31 9 -7 14 -15 11 -17 -2 -2 26
-34 62 -70 196 -195 494 -311 746 -290 278 25 543 164 687 360 15 21 26 44 23
51 -3 8 4 16 14 18 11 3 28 18 38 33 21 33 13 50 -37 78 -25 14 -27 17 -9 12
63 -17 80 -18 80 -1 0 9 -8 20 -17 24 -14 5 -12 8 11 12 16 3 38 17 49 32 21
28 21 28 1 46 -11 11 -26 22 -34 26 -8 3 -3 4 12 1 32 -6 65 20 72 57 8 37 24
151 25 173 2 90 -2 164 -12 205 -2 8 -7 33 -11 55 -4 22 -11 51 -16 65 -15 45
-17 55 -16 61 0 3 -5 13 -13 22 -7 10 -10 17 -7 17 4 0 1 10 -6 23 -7 12 -11
26 -10 31 2 5 -2 13 -9 17 -7 4 -14 14 -15 23 -1 9 -9 23 -18 32 -9 8 -16 19
-16 24 0 5 -10 18 -22 30 -12 11 -18 20 -13 20 4 0 -3 10 -16 23 -57 54 -63
65 -48 84 13 16 12 17 -3 5 -18 -14 -43 -7 -32 9 3 5 0 8 -8 7 -7 -2 -12 3
-10 10 1 6 -5 12 -13 12 -20 0 -19 9 3 34 17 21 17 21 -3 4 -22 -19 -42 -12
-83 28 -13 12 -38 29 -57 38 -19 9 -38 23 -42 31 -8 14 -11 15 -39 15 -8 0
-13 4 -9 9 3 5 1 12 -5 16 -6 4 -7 11 -4 17 4 7 2 8 -4 4 -6 -4 -9 -13 -6 -21
5 -12 1 -12 -20 -2 -14 7 -26 15 -26 19 0 4 -7 5 -15 2 -8 -4 -15 -1 -15 5 0
6 -7 8 -17 4 -12 -5 -14 -3 -8 7 6 10 2 12 -18 8 -17 -3 -24 -1 -20 5 4 6 0 8
-11 4 -9 -4 -24 -3 -34 2 -9 5 -25 12 -35 15 -11 4 -15 11 -11 17 4 8 3 9 -5
5 -6 -4 -8 -12 -5 -18 5 -7 2 -8 -6 -3 -8 5 -34 10 -59 11 -54 3 -128 13 -156
21 -17 5 -18 4 -7 -10 11 -13 10 -15 -7 -10 -12 3 -17 11 -14 19 3 8 3 14 0
14 -3 0 -8 -8 -11 -18z m276 -57 c280 -57 551 -273 674 -539 61 -132 79 -222
79 -391 0 -89 -5 -173 -13 -207 l-13 -58 -102 0 c-119 0 -183 -15 -286 -66
-79 -39 -80 -48 -6 -58 75 -9 295 -86 295 -103 0 -2 -5 -12 -12 -22 -11 -19
-14 -18 -70 10 -70 35 -198 70 -363 100 -145 25 -209 55 -242 114 -13 23 -23
57 -22 80 0 38 3 42 61 78 53 33 65 37 85 28 34 -16 108 -13 151 5 42 17 85
55 112 99 23 38 61 155 54 166 -14 23 -158 7 -238 -26 -17 -7 -17 -6 -6 15 27
51 51 205 35 222 -10 10 -121 -13 -171 -36 -30 -14 -63 -39 -80 -62 -25 -32
-29 -46 -29 -103 -1 -36 -7 -86 -14 -110 -9 -31 -12 -103 -9 -251 l3 -207 30
-49 c42 -68 108 -103 193 -104 44 0 62 -4 62 -13 0 -7 14 -18 30 -24 37 -14
39 0 4 32 -15 14 -24 25 -21 25 3 0 13 3 23 7 13 5 16 3 12 -9 -4 -10 5 -20
31 -32 27 -11 43 -28 56 -57 20 -42 67 -89 91 -89 22 0 17 38 -7 51 -11 6 -29
30 -40 53 -10 23 -26 50 -37 59 -28 25 -88 47 -130 47 -32 0 -41 5 -51 26
l-11 26 42 -7 c190 -30 346 -75 398 -115 l25 -19 -105 -103 c-117 -115 -232
-187 -371 -231 -339 -110 -704 -17 -961 245 -46 47 -78 88 -76 97 6 33 193 91
406 126 l42 7 -11 -26 c-10 -22 -19 -26 -52 -26 -62 0 -119 -33 -147 -83 -12
-23 -36 -56 -53 -74 -28 -30 -30 -53 -3 -53 17 0 86 75 86 93 0 18 39 53 68
62 25 7 27 3 11 -26 -5 -11 -14 -17 -18 -14 -5 3 -11 -2 -15 -10 -3 -8 -4 -15
-1 -15 10 0 81 46 88 57 5 8 29 13 65 13 70 0 127 25 169 73 52 59 57 90 58
322 0 180 -2 214 -17 241 -13 24 -15 39 -9 62 32 110 -79 211 -244 224 l-40 3
3 -59 c2 -32 12 -86 22 -119 11 -34 18 -62 16 -64 -1 -2 -18 5 -37 14 -21 11
-67 19 -123 21 l-89 5 6 -29 c11 -54 47 -142 76 -180 50 -70 159 -103 237 -74
23 9 35 5 90 -31 72 -47 78 -63 45 -134 -37 -83 -81 -103 -306 -145 -139 -26
-262 -62 -321 -94 -39 -22 -42 -22 -53 -5 -6 10 -11 21 -11 24 0 15 207 90
280 101 14 3 38 8 54 12 l28 8 -48 26 c-95 51 -171 71 -299 77 l-120 6 -13 55
c-8 31 -14 114 -15 190 0 150 20 254 74 384 62 146 203 320 328 405 226 153
478 207 733 156z m-512 -585 c0 -5 -4 -10 -10 -10 -5 0 -10 5 -10 10 0 6 5 10
10 10 6 0 10 -4 10 -10z m109 -46 c58 -29 91 -72 91 -118 0 -24 -2 -27 -15
-16 -8 7 -15 25 -15 40 0 19 -10 37 -30 54 -33 28 -106 54 -117 42 -10 -10 14
-24 62 -37 41 -11 55 -23 55 -47 0 -9 -9 -7 -29 7 -31 23 -47 26 -55 12 -3 -5
15 -25 41 -45 45 -35 68 -41 43 -11 -7 8 -8 15 -3 15 5 0 16 -11 23 -25 7 -14
22 -25 32 -25 11 0 18 -7 18 -19 0 -10 7 -32 15 -47 8 -16 15 -39 15 -51 0
-21 -2 -22 -26 -11 l-25 12 22 11 22 12 -22 22 c-13 13 -34 21 -57 21 -46 0
-36 -16 16 -24 22 -3 40 -11 40 -16 0 -12 -2 -12 -34 0 -16 6 -27 6 -31 0 -7
-12 -35 13 -35 31 0 7 -3 9 -6 6 -4 -4 -19 10 -35 29 -29 37 -53 102 -62 167
-5 35 -4 37 22 37 15 0 51 -12 80 -26z m527 -26 c-9 -66 -35 -126 -70 -157
-14 -14 -26 -29 -26 -33 0 -5 -7 -17 -16 -25 -12 -13 -18 -13 -24 -4 -6 10
-12 10 -28 2 -31 -16 -51 -13 -28 4 11 8 32 15 47 15 15 0 31 5 34 10 4 6 -9
10 -31 10 -29 0 -35 3 -26 12 6 6 22 12 34 14 39 4 80 23 73 35 -4 6 -20 8
-38 4 l-32 -6 43 38 c23 21 42 41 42 46 0 15 -38 6 -55 -13 -24 -27 -33 -25
-27 5 3 19 12 26 38 31 19 3 37 10 40 15 3 5 9 7 14 4 4 -3 13 2 20 10 18 22
-14 20 -65 -4 -51 -23 -75 -46 -75 -74 0 -12 -7 -31 -15 -41 -14 -19 -15 -18
-15 17 0 65 85 133 169 136 23 1 23 -1 17 -51z m-1 -108 c-18 -51 -38 -76 -66
-83 -16 -4 -13 2 13 31 19 21 40 52 47 70 20 47 24 33 6 -18z m-134 12 c-7
-13 -7 -22 0 -29 7 -7 0 -12 -22 -17 -25 -5 -30 -10 -26 -26 3 -13 -1 -24 -14
-30 -25 -14 -24 -29 4 -40 12 -5 17 -9 10 -9 -6 -1 -18 -4 -27 -7 -21 -8 -21
15 1 77 10 27 23 49 30 49 7 0 20 11 29 25 19 29 29 34 15 7z m-457 -42 c20
-28 34 -55 31 -60 -8 -13 42 -48 97 -67 l48 -18 0 -53 0 -54 -27 17 c-14 10
-41 26 -60 37 -21 13 -33 28 -33 41 0 12 -9 37 -21 56 -11 18 -18 35 -16 38 3
2 -6 15 -18 29 -21 22 -50 84 -40 84 2 0 19 -23 39 -50z m-244 16 c0 -3 -4 -8
-10 -11 -5 -3 -10 -1 -10 4 0 6 5 11 10 11 6 0 10 -2 10 -4z m143 -43 c34 -14
107 -85 107 -105 0 -14 -36 14 -46 36 -11 26 -85 63 -144 72 -69 10 -37 -14
44 -33 37 -8 66 -20 66 -27 0 -23 58 -69 79 -63 16 4 21 0 21 -13 0 -11 5 -22
10 -25 16 -10 12 -22 -10 -28 -11 -3 -18 -1 -14 4 3 5 -4 9 -15 9 -12 0 -21
-7 -21 -15 0 -8 -8 -15 -17 -15 -15 0 -15 2 -4 9 11 7 3 12 -27 21 -55 14
-105 59 -136 122 -37 75 -35 81 22 72 26 -4 64 -13 85 -21z m891 5 c-16 -54
-44 -96 -61 -94 -10 2 -12 1 -5 -1 20 -7 14 -20 -23 -48 -40 -31 -95 -46 -132
-36 -26 7 -25 8 29 38 31 18 64 30 74 29 11 -2 13 -1 5 1 -10 4 -6 12 14 27
37 30 18 41 -29 17 -35 -18 -43 -17 -28 5 10 14 61 34 95 36 16 1 33 9 40 16
10 12 5 13 -33 7 -58 -9 -121 -44 -136 -74 -13 -26 -44 -49 -44 -33 0 5 10 24
23 43 25 38 74 66 139 78 74 15 80 14 72 -11z m-803 -21 c12 -22 12 -22 -10
-3 -11 11 -21 23 -21 28 0 14 19 -1 31 -25z m603 2 c-25 -27 -38 -23 -17 5 10
13 22 22 26 19 5 -3 1 -14 -9 -24z m-64 -51 c-11 -18 -20 -44 -20 -58 0 -20
-12 -33 -57 -60 -32 -19 -60 -36 -63 -38 -3 -1 -3 22 -2 51 l4 54 53 22 c29
12 61 31 70 42 28 30 37 22 15 -13z m-630 -112 c47 -19 53 -28 9 -16 -46 14
-95 55 -119 101 -7 13 6 3 28 -22 23 -26 60 -54 82 -63z m868 68 c-32 -37 -60
-64 -69 -64 -3 0 14 22 39 50 48 51 71 62 30 14z m-158 -4 c-33 -26 -49 -26
-19 0 13 10 29 19 34 19 6 1 -1 -8 -15 -19z m-55 -10 c4 -6 1 -18 -6 -27 -11
-13 -10 -17 6 -29 17 -12 17 -14 2 -14 -9 0 -17 4 -17 10 0 5 -8 7 -17 3 -15
-5 -16 -3 -5 8 6 7 12 23 12 36 0 24 14 31 25 13z m115 -64 c0 -2 -9 -6 -20
-9 -11 -3 -18 -1 -14 4 5 9 34 13 34 5z m-276 -55 c3 -5 -1 -11 -9 -15 -9 -3
-15 0 -15 9 0 16 16 20 24 6z m-194 -11 c0 -5 -2 -10 -4 -10 -3 0 -8 5 -11 10
-3 6 -1 10 4 10 6 0 11 -4 11 -10z m-733 -146 c-3 -3 -12 -4 -19 -1 -8 3 -5 6
6 6 11 1 17 -2 13 -5z m70 0 c-3 -3 -12 -4 -19 -1 -8 3 -5 6 6 6 11 1 17 -2
13 -5z m661 -28 c-2 -16 -7 -22 -19 -19 -15 4 -16 9 -7 29 13 28 28 22 26 -10z
m202 -7 c0 -4 -6 -9 -14 -12 -16 -7 -30 19 -15 28 5 4 7 12 3 18 -3 7 2 3 10
-7 9 -11 16 -23 16 -27z m-732 -29 c29 -12 51 -24 49 -27 -9 -9 -147 -12 -152
-3 -3 6 -40 10 -80 10 -63 0 -76 3 -85 19 -5 11 -10 23 -10 27 0 3 51 4 113 2
88 -4 123 -10 165 -28z m50 14 c20 -9 32 -18 25 -21 -11 -4 -73 23 -73 32 0 8
9 6 48 -11z m1172 10 c0 -6 -65 -34 -77 -34 -9 1 58 39 70 40 4 0 7 -2 7 -6z
m278 -21 c-10 -27 -12 -28 -79 -25 -38 2 -69 0 -69 -5 0 -4 23 -14 52 -21 53
-12 65 -18 56 -27 -7 -7 -118 27 -118 35 0 4 -26 5 -57 4 -92 -5 -40 12 77 26
142 16 147 18 58 19 -79 1 -175 -14 -192 -30 -6 -5 -21 -9 -35 -9 l-26 1 30
16 c53 29 117 41 217 42 l96 1 -10 -27z m-1007 -41 c-11 -22 -34 -51 -50 -65
-30 -25 -87 -44 -98 -33 -12 12 30 57 75 80 26 13 56 33 66 45 28 30 31 19 7
-27z m312 -18 c29 -17 61 -44 72 -60 11 -16 26 -29 33 -29 17 0 16 -18 -2 -21
-8 -1 -17 4 -20 12 -3 8 -13 14 -22 14 -33 0 -96 46 -120 86 -27 46 -33 82 -8
49 8 -11 38 -34 67 -51z m-968 -4 c-69 -22 -75 -23 -75 -11 0 11 64 29 105 29
22 1 14 -4 -30 -18z m513 -16 c-9 -9 -21 -13 -28 -9 -9 6 -6 12 11 21 29 15
38 9 17 -12z m557 7 c10 -18 -17 -23 -33 -7 -15 15 -15 16 5 16 12 0 24 -4 28
-9z m-570 -82 c10 -15 2 -19 -24 -12 -17 4 -19 8 -9 14 18 12 26 11 33 -2z
m-80 -25 c-18 -13 -35 -11 -35 5 0 5 12 9 27 9 25 0 25 -1 8 -14z"/>
<path d="M1353 2374 c-8 -21 13 -42 28 -27 13 13 5 43 -11 43 -6 0 -13 -7 -17
-16z"/>
<path d="M1471 2344 c-47 -72 -72 -129 -76 -176 -2 -24 -11 -61 -19 -83 -29
-77 -15 -162 35 -220 17 -19 39 -37 50 -40 18 -6 19 -18 19 -246 0 -210 2
-240 16 -246 9 -3 20 0 25 8 5 8 8 118 7 245 l-3 231 36 21 c72 42 107 180 66
259 -10 18 -17 50 -17 71 0 40 -32 112 -83 186 l-24 37 -32 -47z m46 -20 c-3
-3 -12 -4 -19 -1 -8 3 -5 6 6 6 11 1 17 -2 13 -5z m43 -152 c0 -18 -8 -47 -17
-65 l-18 -32 -3 49 c-2 27 2 54 7 59 6 6 11 16 11 22 0 5 -5 3 -11 -5 -9 -12
-10 -11 -6 7 3 12 -1 30 -9 40 -11 15 -15 16 -23 4 -5 -8 -7 -21 -3 -29 3 -9
1 -13 -5 -9 -10 7 -10 -20 1 -100 7 -48 -30 -15 -40 35 -5 23 2 48 26 99 l32
68 28 -55 c16 -30 29 -70 30 -88z m-53 -14 c-3 -7 -5 -2 -5 12 0 14 2 19 5 13
2 -7 2 -19 0 -25z m13 -83 c5 -6 3 -18 -4 -27 -12 -17 -14 -17 -30 0 -20 23
-20 32 -1 32 10 0 16 11 16 33 l2 32 4 -30 c3 -16 8 -35 13 -40z m74 39 c3 -9
6 -17 6 -18 0 -1 -9 -2 -20 -2 -11 0 -20 1 -20 2 0 11 14 34 20 34 4 0 11 -7
14 -16z m-172 -16 c-7 -7 -12 -8 -12 -2 0 6 3 14 7 17 3 4 9 5 12 2 2 -3 -1
-11 -7 -17z m61 -152 c1 -42 0 -76 -4 -76 -11 0 -48 46 -58 73 -12 30 -15 96
-5 120 4 11 12 8 35 -13 27 -26 29 -34 32 -104z m112 35 c-5 -43 -46 -111 -66
-111 -5 0 -9 34 -9 75 0 72 1 76 33 104 l32 29 8 -26 c4 -15 5 -47 2 -71z
m-70 -117 c13 -10 13 -13 0 -24 -13 -11 -20 -11 -41 1 -23 12 -23 14 -7 20 9
3 18 14 19 25 0 10 2 39 4 64 4 42 4 41 7 -15 2 -38 9 -64 18 -71z"/>
<path d="M1462 2160 c0 -19 2 -27 5 -17 2 9 2 25 0 35 -3 9 -5 1 -5 -18z"/>
<path d="M1430 2003 c0 -45 17 -103 31 -103 14 0 7 53 -9 73 -13 15 -13 17 1
17 23 0 21 13 -3 35 -20 18 -20 17 -20 -22z"/>
<path d="M1558 2023 c-22 -24 -23 -34 -3 -27 8 4 15 1 15 -5 0 -6 -3 -11 -8
-11 -4 0 -13 -9 -20 -21 -8 -12 -9 -18 -3 -14 6 3 11 -1 11 -9 0 -9 4 -16 10
-16 11 0 23 57 18 95 -3 27 -3 27 -20 8z"/>
<path d="M1621 2376 c-14 -17 -7 -36 14 -36 22 0 29 20 13 36 -13 13 -16 13
-27 0z"/>
<path d="M1180 2323 c1 -32 38 -101 63 -118 26 -17 88 -37 95 -31 2 3 6 22 9
44 9 70 -47 122 -132 122 -27 0 -35 -4 -35 -17z m96 -18 c23 -10 39 -26 49
-49 22 -51 18 -67 -5 -24 -22 42 -55 68 -84 68 -17 0 -15 -5 15 -36 l34 -37
-30 7 c-36 9 -32 4 -40 49 -8 43 2 47 61 22z"/>
<path d="M1715 2322 c-43 -26 -55 -45 -61 -89 l-4 -38 19 41 c28 61 105 107
125 75 11 -18 -19 -71 -46 -80 -37 -13 -35 -4 10 42 34 36 35 39 12 32 -44
-14 -68 -35 -90 -82 -12 -25 -19 -47 -16 -50 8 -8 73 17 101 38 28 22 48 58
59 102 6 26 5 27 -36 27 -24 0 -56 -8 -73 -18z m-5 -102 c0 -5 -5 -10 -11 -10
-5 0 -7 5 -4 10 3 6 8 10 11 10 2 0 4 -4 4 -10z"/>
<path d="M1041 2246 c-35 -139 25 -266 141 -301 28 -8 58 -15 65 -15 7 0 22
-9 33 -20 18 -18 21 -18 27 -5 3 9 3 45 0 81 -6 79 -37 131 -105 177 -26 18
-68 53 -95 79 -26 27 -49 48 -51 48 -2 0 -9 -20 -15 -44z m64 -42 c16 -25 16
-25 -5 -14 -18 10 -24 8 -34 -6 -11 -15 -12 -13 -8 14 5 39 24 41 47 6z m35
-59 c63 -46 120 -110 120 -135 0 -30 -12 -24 -42 20 -15 22 -53 59 -83 82 -30
24 -55 49 -55 56 0 18 8 15 60 -23z m-40 -30 c0 4 7 2 15 -5 8 -7 12 -17 8
-23 -3 -5 -1 -7 4 -4 6 4 19 -1 30 -11 10 -9 13 -13 6 -9 -7 5 -25 2 -44 -7
-34 -17 -47 -20 -36 -10 3 4 2 15 -4 25 -5 10 -11 33 -13 51 l-4 33 19 -24
c10 -13 19 -20 19 -16z m155 -35 c3 -5 1 -10 -4 -10 -6 0 -11 5 -11 10 0 6 2
10 4 10 3 0 8 -4 11 -10z m-85 -45 c11 -13 8 -15 -18 -15 -31 0 -47 11 -35 24
11 11 40 6 53 -9z m60 -47 c0 -4 9 -8 20 -8 14 0 20 7 21 23 l0 22 9 -23 c14
-34 3 -52 -28 -46 -15 3 -34 7 -42 8 -8 2 -28 9 -45 16 -29 13 -29 14 -6 18
13 2 26 12 28 23 5 19 6 18 24 -2 11 -12 19 -26 19 -31z"/>
<path d="M1917 2260 c-10 -16 -39 -44 -65 -61 -68 -46 -111 -89 -134 -133 -21
-41 -35 -133 -24 -161 5 -14 9 -14 33 4 16 10 51 24 79 31 105 24 165 106 163
226 -2 116 -20 149 -52 94z m26 -50 c3 -12 0 -20 -8 -20 -14 0 -27 25 -18 34
11 11 21 6 26 -14z m-15 -41 c-2 -6 -33 -34 -68 -62 -36 -29 -72 -67 -80 -84
-17 -38 -45 -46 -34 -10 10 34 42 74 80 104 27 20 32 28 22 35 -9 6 -6 7 8 3
13 -3 26 1 34 10 14 17 44 21 38 4z m6 -41 c-10 -12 -13 -18 -7 -14 10 5 11
-1 6 -26 -7 -36 -23 -52 -37 -38 -6 6 -21 10 -34 10 -21 0 -22 2 -12 15 7 8
19 15 28 15 8 0 13 3 9 6 -6 7 43 53 57 54 5 0 1 -10 -10 -22z m-134 -13 c-7
-8 -17 -15 -22 -15 -11 0 14 29 26 30 5 0 3 -7 -4 -15z m-30 -29 c0 -2 -8 -10
-17 -17 -16 -13 -17 -12 -4 4 13 16 21 21 21 13z m51 -40 c-20 -23 -2 -48 31
-44 51 8 10 -18 -64 -40 l-68 -20 0 23 c0 18 4 21 23 18 18 -4 29 4 50 36 15
23 30 41 33 41 4 0 1 -6 -5 -14z m67 -8 c-3 -7 -20 -14 -38 -16 -30 -3 -32 -2
-21 12 16 19 65 22 59 4z"/>
<path d="M924 2179 c-9 -15 11 -33 30 -26 9 4 13 13 10 22 -7 17 -30 20 -40 4z"/>
<path d="M2042 2173 c5 -26 38 -29 38 -4 0 15 -6 21 -21 21 -14 0 -19 -5 -17
-17z"/>
<path d="M856 2104 c-3 -9 -9 -46 -12 -82 -11 -116 27 -202 106 -242 37 -19
70 -26 70 -15 0 2 -9 29 -21 60 -18 49 -23 55 -47 52 -15 -1 -28 3 -29 8 -1 6
7 9 17 7 33 -5 23 13 -20 37 -22 12 -40 26 -40 32 0 15 15 11 54 -16 30 -20
38 -22 41 -10 3 8 7 22 10 31 3 8 9 12 15 9 6 -4 5 -18 -4 -39 -12 -29 -12
-35 5 -57 10 -13 24 -39 30 -57 14 -42 26 -33 35 24 8 56 -7 112 -42 153 -21
25 -147 121 -158 121 -2 0 -7 -7 -10 -16z m51 -45 c7 -7 5 -20 -6 -45 -21 -47
-32 -43 -29 11 3 44 14 55 35 34z m41 -70 l-5 -24 -10 25 c-12 28 -6 47 9 32
5 -5 8 -20 6 -33z m92 -79 c0 -11 -4 -20 -10 -20 -5 0 -10 9 -10 20 0 11 5 20
10 20 6 0 10 -9 10 -20z m-145 0 c3 -5 -1 -10 -10 -10 -9 0 -13 5 -10 10 3 6
8 10 10 10 2 0 7 -4 10 -10z m54 -66 c6 4 15 -2 21 -13 5 -11 6 -22 1 -25 -11
-7 -61 31 -61 46 0 7 5 6 15 -2 8 -6 19 -9 24 -6z"/>
<path d="M2061 2067 c-53 -37 -81 -65 -98 -96 -23 -44 -30 -110 -17 -158 7
-25 24 -31 24 -9 0 7 11 34 25 60 21 39 23 50 13 71 -8 18 -8 29 -1 36 8 8 13
2 18 -19 l6 -31 36 25 c38 26 53 30 53 14 0 -5 -13 -16 -28 -24 -16 -8 -35
-22 -43 -32 -13 -16 -12 -17 13 -11 15 4 30 3 33 -3 6 -10 -13 -15 -48 -12
-19 2 -56 -65 -57 -102 0 -15 5 -17 28 -11 108 27 164 136 141 277 -6 34 -13
66 -17 70 -4 3 -40 -17 -81 -45z m73 -45 c2 -45 1 -49 -15 -39 -9 6 -15 16
-13 22 3 7 -2 18 -11 25 -15 13 -14 15 7 31 12 10 24 16 26 14 2 -2 5 -26 6
-53z m-63 -45 c-8 -8 -11 -4 -11 14 0 33 14 47 18 19 2 -12 -1 -27 -7 -33z
m-39 21 c-7 -7 -12 -8 -12 -2 0 6 3 14 7 17 3 4 9 5 12 2 2 -3 -1 -11 -7 -17z
m-42 -85 c0 -5 -4 -15 -10 -23 -11 -18 -25 -7 -17 15 6 15 27 21 27 8z m140
-25 c0 -3 -18 -25 -39 -47 -43 -45 -73 -54 -64 -21 6 21 6 21 41 25 28 3 54
35 41 51 -5 6 -6 14 -2 18 6 6 23 -12 23 -26z"/>
<path d="M745 1971 c-8 -15 3 -31 21 -31 9 0 14 7 12 17 -4 20 -24 28 -33 14z"/>
<path d="M2225 1970 c-4 -7 -3 -16 3 -22 14 -14 45 -2 40 15 -6 16 -34 21 -43
7z"/>
<path d="M698 1873 c-7 -16 -12 -64 -12 -108 -1 -70 2 -85 26 -121 28 -43 95
-84 136 -84 21 0 19 4 -19 53 -46 57 -92 151 -86 176 2 10 13 -3 29 -34 33
-63 85 -135 98 -135 20 0 10 86 -16 137 -21 44 -118 143 -138 143 -4 0 -12
-12 -18 -27z m84 -60 c45 -46 75 -99 63 -111 -7 -7 -41 40 -37 51 1 4 -2 7 -8
7 -5 0 -10 6 -10 14 0 7 -11 21 -24 29 -22 15 -24 14 -36 -9 -10 -18 -11 -32
-2 -60 9 -29 8 -36 -4 -41 -8 -3 -18 -3 -21 1 -4 3 -1 6 6 6 7 0 9 5 4 13 -4
6 -9 19 -10 27 -4 22 17 120 26 120 4 0 28 -21 53 -47z m-22 -133 c11 -7 6
-10 -20 -10 -26 0 -31 3 -20 10 8 5 17 10 20 10 3 0 12 -5 20 -10z m13 -34 c3
-8 3 -17 0 -20 -7 -7 -33 13 -33 25 0 15 27 10 33 -5z"/>
<path d="M2225 1848 c-31 -28 -65 -68 -75 -89 -24 -47 -35 -112 -23 -134 9
-14 15 -10 45 32 20 26 45 67 57 90 24 49 47 68 36 32 -17 -58 -55 -128 -94
-171 -42 -47 -42 -48 -18 -48 58 0 123 44 154 105 9 16 16 54 17 85 1 57 -20
150 -34 150 -5 0 -34 -23 -65 -52z m65 -12 c5 -14 7 -34 5 -45 -2 -11 0 -23 6
-26 5 -4 5 -13 -1 -24 -5 -10 -6 -21 -3 -25 3 -3 1 -6 -6 -6 -8 0 -10 -7 -6
-20 5 -16 2 -20 -19 -20 -18 0 -24 4 -20 15 4 8 11 12 17 8 6 -4 8 2 5 15 -3
12 0 26 6 31 13 11 14 34 1 64 -11 27 -22 21 -57 -33 -18 -27 -36 -50 -41 -50
-4 0 -6 -4 -3 -8 3 -5 -1 -9 -9 -9 -8 0 -11 5 -7 11 3 6 7 17 8 24 4 21 91
120 107 121 4 1 12 -10 17 -23z m-27 -197 c-7 -7 -19 -8 -30 -4 -16 7 -15 9 7
15 30 8 38 4 23 -11z m-28 -19 c3 -5 -1 -10 -10 -10 -9 0 -13 5 -10 10 3 6 8
10 10 10 2 0 7 -4 10 -10z"/>
<path d="M1070 1735 c0 -8 7 -15 15 -15 8 0 15 7 15 15 0 8 -7 15 -15 15 -8 0
-15 -7 -15 -15z"/>
<path d="M1907 1743 c-12 -11 -8 -23 8 -23 8 0 15 7 15 15 0 16 -12 20 -23 8z"/>
<path d="M620 1590 c0 -15 5 -20 18 -18 9 2 17 10 17 18 0 8 -8 16 -17 18 -13
2 -18 -3 -18 -18z"/>
<path d="M2345 1600 c-4 -7 -3 -16 3 -22 14 -14 45 -2 40 15 -6 16 -34 21 -43
7z"/>
<path d="M625 1491 c-17 -29 30 -49 168 -69 37 -6 90 -22 117 -36 42 -22 50
-23 61 -10 17 21 -27 66 -95 95 -59 26 -238 40 -251 20z m208 -32 c26 -7 47
-17 47 -22 0 -5 -10 -6 -22 -2 -13 4 -55 9 -95 12 -41 3 -77 11 -83 18 -15 18
87 14 153 -6z m77 -23 c0 -3 -4 -8 -10 -11 -5 -3 -10 -1 -10 4 0 6 5 11 10 11
6 0 10 -2 10 -4z m40 -42 c0 -2 -9 0 -20 6 -11 6 -20 13 -20 16 0 2 9 0 20 -6
11 -6 20 -13 20 -16z"/>
<path d="M2165 1483 c-66 -20 -129 -63 -133 -91 -4 -28 24 -29 70 -2 18 10 67
25 108 31 123 20 165 33 165 55 0 17 -9 19 -80 21 -50 1 -99 -4 -130 -14z
m175 -13 c0 -4 -6 -7 -12 -8 -63 -5 -161 -24 -197 -36 -24 -9 -49 -16 -55 -16
-23 0 56 40 106 53 55 15 158 19 158 7z"/>
<path d="M624 1355 c-11 -27 7 -35 81 -35 46 0 90 -6 115 -16 45 -18 68 -9 56
21 -10 28 -70 45 -161 45 -66 0 -87 -3 -91 -15z"/>
<path d="M2170 1357 c-24 -8 -36 -19 -38 -35 -4 -28 19 -38 50 -21 13 7 64 16
113 19 82 4 90 7 90 25 0 18 -7 20 -90 22 -50 1 -105 -3 -125 -10z"/>
<path d="M1055 1337 c-58 -20 -106 -47 -100 -56 2 -5 36 -30 73 -56 113 -76
188 -75 273 5 59 55 58 57 -36 64 -33 2 -71 7 -84 11 -18 6 -22 5 -16 -4 6
-10 2 -11 -16 -5 -35 12 -72 11 -76 -2 -2 -7 9 -15 24 -19 27 -6 27 -7 8 -21
-24 -18 -81 -15 -77 4 1 6 -5 12 -13 12 -26 0 -16 16 22 34 55 26 110 30 161
11 50 -20 65 -14 29 10 -34 22 -123 28 -172 12z m148 -83 c-4 -10 0 -12 13 -8
11 4 25 12 32 17 9 7 16 7 24 -1 11 -11 3 -32 -13 -32 -6 0 -7 5 -3 12 4 6
-11 -3 -33 -21 -31 -24 -46 -31 -58 -24 -14 8 -14 11 5 28 21 19 27 45 9 45
-5 0 -7 5 -4 10 10 16 35 -8 28 -26z m-49 -25 c-25 -24 -37 -30 -54 -24 -23 7
-23 8 7 20 17 7 34 18 37 24 4 6 15 11 24 11 12 0 9 -8 -14 -31z"/>
<path d="M1180 1225 c-7 -9 -11 -18 -8 -20 3 -3 11 1 18 10 7 9 11 18 8 20 -3
3 -11 -1 -18 -10z"/>
<path d="M1791 1330 c-53 -25 -48 -39 6 -17 58 23 125 13 211 -30 6 -3 -35
-40 -49 -45 -8 -3 -27 2 -44 10 l-30 15 28 9 c15 6 27 13 27 18 0 15 -36 21
-64 10 -35 -13 -36 -13 -30 4 4 11 0 13 -15 9 -12 -3 -24 -9 -27 -14 -3 -5
-34 -9 -69 -9 -35 0 -67 -5 -70 -10 -8 -13 69 -88 102 -101 42 -16 112 -10
156 12 50 26 126 81 127 92 0 15 -110 58 -162 63 -40 4 -64 0 -97 -16z m37
-61 c-9 -6 -8 -9 7 -9 11 0 28 -9 38 -20 9 -11 24 -20 32 -20 9 0 13 -4 10
-10 -10 -17 -32 -11 -64 16 -20 17 -31 21 -31 12 -1 -8 -6 -6 -15 6 -17 23 -3
48 22 39 12 -5 12 -7 1 -14z m52 7 c0 -11 -19 -15 -25 -6 -3 5 1 10 9 10 9 0
16 -2 16 -4z m-136 -32 c9 -24 7 -28 -9 -14 -17 14 -20 30 -6 30 5 0 12 -7 15
-16z m60 -16 c14 -18 26 -27 26 -20 0 7 5 10 11 6 8 -5 6 -10 -5 -16 -17 -10
-55 12 -75 45 -21 32 16 19 43 -15z"/>
<path d="M1482 1238 c3 -45 6 -53 23 -53 17 0 20 7 20 50 0 44 -3 50 -23 53
-22 3 -23 1 -20 -50z"/>
<path d="M1480 1134 c-6 -14 -10 -30 -10 -36 0 -6 -12 -32 -27 -59 -24 -45
-34 -54 -55 -50 -5 0 -7 -5 -5 -11 1 -7 -6 -12 -15 -12 -10 1 -15 -2 -13 -7 8
-12 -103 -42 -159 -43 -27 0 -41 -2 -32 -6 11 -3 -1 -11 -36 -24 -34 -12 -67
-35 -100 -68 -52 -53 -57 -65 -32 -75 10 -4 30 9 57 35 41 40 116 81 149 82 9
0 24 8 34 18 10 9 22 17 28 18 15 1 46 13 84 31 17 9 35 13 39 10 3 -4 1 -7
-5 -7 -7 0 -12 -6 -12 -13 0 -8 -8 -21 -17 -30 -18 -15 -22 -17 -43 -17 -5 0
-10 -9 -10 -20 0 -11 5 -20 12 -20 13 0 148 139 148 153 0 4 4 7 9 7 27 0 -35
-120 -74 -146 -33 -21 -55 -74 -55 -129 0 -39 3 -46 17 -43 13 2 20 17 25 51
5 39 16 58 54 99 l47 50 -5 -45 c-3 -27 -20 -68 -42 -104 -40 -65 -51 -115
-26 -120 10 -2 26 21 49 67 18 39 36 70 40 70 9 0 47 -62 65 -104 9 -21 22
-36 32 -36 26 0 12 59 -30 128 -22 34 -36 70 -36 89 0 18 -5 35 -11 39 -9 5
-10 -7 -7 -44 4 -39 2 -52 -10 -57 -21 -8 -25 0 -13 23 24 45 2 116 -29 97 -6
-4 -2 8 10 27 26 44 27 88 0 95 -11 3 -20 6 -20 7 3 16 60 116 60 106 0 -8 11
-36 24 -63 13 -26 17 -42 10 -36 -24 20 -37 -1 -30 -50 4 -25 7 -51 8 -58 1
-7 4 -10 8 -8 3 2 11 -5 18 -15 10 -16 9 -18 -3 -14 -26 10 -16 -9 27 -53 34
-35 43 -52 48 -90 4 -40 9 -48 25 -48 18 0 20 5 16 50 -4 62 -12 77 -72 141
-30 32 -52 67 -59 94 -13 48 -7 63 10 28 7 -12 23 -34 36 -48 13 -14 36 -40
50 -58 33 -41 62 -58 77 -43 14 14 -11 43 -32 36 -11 -3 -23 8 -39 35 l-23 40
33 -18 c36 -21 86 -36 105 -33 7 1 17 -8 23 -19 6 -11 18 -20 28 -20 33 0 123
-50 156 -86 22 -25 39 -35 50 -31 24 9 20 23 -21 68 -37 41 -117 88 -150 90
-16 0 -16 2 2 10 17 8 17 9 -5 4 -32 -6 -140 14 -140 27 0 5 -5 6 -11 3 -17
-11 -86 42 -113 87 -13 24 -29 62 -36 86 -12 48 -35 56 -50 16z m327 -250 c-3
-3 -12 -4 -19 -1 -8 3 -5 6 6 6 11 1 17 -2 13 -5z m134 -61 c13 -16 12 -17 -3
-4 -17 13 -22 21 -14 21 2 0 10 -8 17 -17z"/>
<path d="M881 920 c-40 -48 -46 -70 -17 -70 20 0 89 88 82 105 -9 24 -20 18
-65 -35z"/>
<path d="M2055 959 c-9 -13 66 -103 89 -107 27 -6 18 27 -20 74 -36 44 -57 54
-69 33z"/>
<path d="M1920 912 c0 -12 19 -26 26 -19 2 2 -2 10 -11 17 -9 8 -15 8 -15 2z"/>
<path d="M1283 883 c-10 -10 -23 -18 -30 -18 -15 0 -72 -72 -79 -100 -9 -37 0
-80 16 -80 9 0 17 14 21 38 3 21 16 50 28 65 12 15 29 41 38 59 9 17 25 36 37
41 17 9 18 11 4 11 -10 1 -26 -7 -35 -16z"/>
<path d="M1690 895 c0 -3 7 -13 16 -22 33 -38 84 -124 84 -142 0 -30 11 -51
26 -51 10 0 14 14 14 49 0 39 -6 56 -30 86 -16 21 -30 42 -30 47 0 6 -6 8 -14
5 -8 -3 -22 3 -32 14 -16 18 -34 25 -34 14z"/>
<path d="M1087 762 c-31 -33 -35 -52 -9 -52 21 0 66 56 57 70 -10 16 -19 12
-48 -18z"/>
<path d="M1870 775 c0 -26 31 -65 51 -65 25 0 24 14 -3 50 -23 32 -48 40 -48
15z"/>
<path d="M1255 720 c-5 -41 -3 -66 4 -73 20 -20 34 8 35 69 1 47 -2 59 -15 62
-14 2 -18 -9 -24 -58z"/>
<path d="M1707 773 c-2 -5 -1 -35 2 -68 4 -44 10 -60 21 -60 19 0 27 100 9
121 -13 15 -26 18 -32 7z"/>
<path d="M1250 1657 c0 -18 21 -27 65 -27 19 0 37 -4 40 -10 3 -5 11 -10 17
-10 7 0 6 6 -2 15 -7 8 -21 15 -30 15 -10 0 -20 4 -22 10 -1 5 -18 12 -35 16
-26 5 -33 3 -33 -9z"/>
<path d="M1075 1560 c-4 -6 -3 -14 0 -20 3 -5 -1 -10 -10 -10 -9 0 -13 -5 -10
-10 5 -8 11 -7 20 0 8 7 19 9 26 5 6 -4 16 -1 21 6 8 11 9 10 4 -4 -4 -11 1
-20 12 -24 9 -4 34 -18 55 -31 20 -14 40 -23 43 -20 3 3 -15 18 -40 34 -24 15
-43 31 -40 35 5 8 -12 21 -48 37 -17 7 -30 8 -33 2z"/>
<path d="M1098 1503 c7 -3 16 -2 19 1 4 3 -2 6 -13 5 -11 0 -14 -3 -6 -6z"/>
<path d="M1100 1480 c8 -5 22 -10 30 -10 13 0 13 1 0 10 -8 5 -22 10 -30 10
-13 0 -13 -1 0 -10z"/>
<path d="M1875 1480 c-20 -9 -20 -9 0 -9 11 0 27 4 35 9 13 9 13 10 0 9 -8 0
-24 -4 -35 -9z"/>
<path d="M660 1153 c19 -3 79 -10 133 -17 53 -7 97 -9 97 -6 0 13 -113 30
-189 28 -42 0 -60 -3 -41 -5z"/>
<path d="M1118 2453 c7 -3 16 -2 19 1 4 3 -2 6 -13 5 -11 0 -14 -3 -6 -6z"/>
<path d="M866 2301 c-3 -4 6 -8 20 -9 13 -1 24 0 24 2 0 7 -40 14 -44 7z"/>
<path d="M2388 2013 c7 -3 16 -2 19 1 4 3 -2 6 -13 5 -11 0 -14 -3 -6 -6z"/>
</g>
</svg>
